<svg xmlns="http://www.w3.org/2000/svg" version="1.1" xmlns:xlink="http://www.w3.org/1999/xlink" xmlns:svgjs="http://svgjs.dev/svgjs" width="1140" height="350" preserveAspectRatio="none" viewBox="0 0 1140 350"><g mask="url(&quot;#SvgjsMask1153&quot;)" fill="none"><path d="M282 280L281 71" stroke-width="8" stroke="url(&quot;#SvgjsLinearGradient1154&quot;)" stroke-linecap="round" class="Up"></path><path d="M978 83L977 -135" stroke-width="10" stroke="url(&quot;#SvgjsLinearGradient1155&quot;)" stroke-linecap="round" class="Down"></path><path d="M219 111L218 -147" stroke-width="8" stroke="url(&quot;#SvgjsLinearGradient1154&quot;)" stroke-linecap="round" class="Up"></path><path d="M753 78L752 -39" stroke-width="8" stroke="url(&quot;#SvgjsLinearGradient1155&quot;)" stroke-linecap="round" class="Down"></path><path d="M47 196L46 313" stroke-width="10" stroke="url(&quot;#SvgjsLinearGradient1156&quot;)" stroke-linecap="round" class="Down"></path><path d="M421 95L420 -155" stroke-width="8" stroke="url(&quot;#SvgjsLinearGradient1154&quot;)" stroke-linecap="round" class="Up"></path><path d="M101 312L100 133" stroke-width="6" stroke="url(&quot;#SvgjsLinearGradient1156&quot;)" stroke-linecap="round" class="Down"></path><path d="M1120 0L1119 -117" stroke-width="10" stroke="url(&quot;#SvgjsLinearGradient1155&quot;)" stroke-linecap="round" class="Down"></path><path d="M777 29L776 -90" stroke-width="8" stroke="url(&quot;#SvgjsLinearGradient1155&quot;)" stroke-linecap="round" class="Down"></path><path d="M964 281L963 386" stroke-width="6" stroke="url(&quot;#SvgjsLinearGradient1155&quot;)" stroke-linecap="round" class="Down"></path><path d="M576 241L575 415" stroke-width="8" stroke="url(&quot;#SvgjsLinearGradient1155&quot;)" stroke-linecap="round" class="Down"></path><path d="M314 167L313 -8" stroke-width="10" stroke="url(&quot;#SvgjsLinearGradient1155&quot;)" stroke-linecap="round" class="Down"></path><path d="M898 113L897 262" stroke-width="10" stroke="url(&quot;#SvgjsLinearGradient1157&quot;)" stroke-linecap="round" class="Up"></path><path d="M474 319L473 490" stroke-width="6" stroke="url(&quot;#SvgjsLinearGradient1154&quot;)" stroke-linecap="round" class="Up"></path><path d="M227 222L226 324" stroke-width="10" stroke="url(&quot;#SvgjsLinearGradient1156&quot;)" stroke-linecap="round" class="Down"></path><path d="M1021 149L1020 410" stroke-width="6" stroke="url(&quot;#SvgjsLinearGradient1155&quot;)" stroke-linecap="round" class="Down"></path><path d="M662 201L661 -28" stroke-width="6" stroke="url(&quot;#SvgjsLinearGradient1155&quot;)" stroke-linecap="round" class="Down"></path><path d="M930 19L929 261" stroke-width="6" stroke="url(&quot;#SvgjsLinearGradient1155&quot;)" stroke-linecap="round" class="Down"></path><path d="M309 51L308 166" stroke-width="6" stroke="url(&quot;#SvgjsLinearGradient1157&quot;)" stroke-linecap="round" class="Up"></path><path d="M392 70L391 263" stroke-width="8" stroke="url(&quot;#SvgjsLinearGradient1155&quot;)" stroke-linecap="round" class="Down"></path><path d="M546 245L545 367" stroke-width="6" stroke="url(&quot;#SvgjsLinearGradient1154&quot;)" stroke-linecap="round" class="Up"></path><path d="M939 164L938 66" stroke-width="6" stroke="url(&quot;#SvgjsLinearGradient1155&quot;)" stroke-linecap="round" class="Down"></path><path d="M354 320L353 151" stroke-width="8" stroke="url(&quot;#SvgjsLinearGradient1157&quot;)" stroke-linecap="round" class="Up"></path><path d="M545 280L544 71" stroke-width="10" stroke="url(&quot;#SvgjsLinearGradient1155&quot;)" stroke-linecap="round" class="Down"></path><path d="M428 34L427 -143" stroke-width="10" stroke="url(&quot;#SvgjsLinearGradient1156&quot;)" stroke-linecap="round" class="Down"></path><path d="M1023 190L1022 358" stroke-width="8" stroke="url(&quot;#SvgjsLinearGradient1157&quot;)" stroke-linecap="round" class="Up"></path><path d="M800 53L799 -36" stroke-width="6" stroke="url(&quot;#SvgjsLinearGradient1154&quot;)" stroke-linecap="round" class="Up"></path><path d="M1049 47L1048 300" stroke-width="8" stroke="url(&quot;#SvgjsLinearGradient1155&quot;)" stroke-linecap="round" class="Down"></path><path d="M1098 274L1097 124" stroke-width="8" stroke="url(&quot;#SvgjsLinearGradient1154&quot;)" stroke-linecap="round" class="Up"></path></g><defs><mask id="SvgjsMask1153"><rect width="1140" height="350" fill="#ffffff"></rect></mask><linearGradient x1="0%" y1="100%" x2="0%" y2="0%" id="SvgjsLinearGradient1154"><stop stop-color="rgba(208, 32, 42, 0)" offset="0"></stop><stop stop-color="rgba(208, 32, 42, 1)" offset="1"></stop></linearGradient><linearGradient x1="0%" y1="0%" x2="0%" y2="100%" id="SvgjsLinearGradient1155"><stop stop-color="rgba(67, 55, 101, 0)" offset="0"></stop><stop stop-color="rgba(67, 55, 101, 1)" offset="1"></stop></linearGradient><linearGradient x1="0%" y1="0%" x2="0%" y2="100%" id="SvgjsLinearGradient1156"><stop stop-color="rgba(208, 32, 42, 0)" offset="0"></stop><stop stop-color="rgba(208, 32, 42, 1)" offset="1"></stop></linearGradient><linearGradient x1="0%" y1="100%" x2="0%" y2="0%" id="SvgjsLinearGradient1157"><stop stop-color="rgba(67, 55, 101, 0)" offset="0"></stop><stop stop-color="rgba(67, 55, 101, 1)" offset="1"></stop></linearGradient></defs></svg>